<svg width="18" height="18" viewBox="0 0 18 18" fill="none" xmlns="http://www.w3.org/2000/svg">
<path d="M11.1494 2.13669L11.6787 2.66596V4.97186L11.1494 5.50113H5.43455L4.90527 4.97186V2.66596L5.43455 2.13669H11.1494ZM5.96382 4.44258H10.6201V3.19524H5.96382V4.44258Z" fill="#757575"/>
<rect x="1.93848" y="4.29895" width="12.708" height="8.472" fill="#9E9E9E" stroke="#9E9E9E" stroke-width="1.64733" stroke-miterlimit="3.99393" stroke-linejoin="bevel"/>
<path d="M6.08654 5.00423V12.0645H4.85156V5.00423H6.08654ZM11.7346 5.00423V12.0645H10.4996V5.00423H11.7346Z" fill="white"/>
<path d="M9.14453 8.90007L15.7842 9.27483L15.5317 13.7485L8.89203 13.3737L9.14453 8.90007Z" fill="white"/>
<path d="M7.86433 11.9098L14.9603 9.02931L16.8236 13.6195L9.72765 16.5L7.86433 11.9098Z" fill="#757575"/>
<path d="M7.45312 10.8956L10.0203 9.8535L11.1905 10.5592L7.86463 11.9093L7.45312 10.8956Z" fill="#757575"/>
</svg>
