<svg width="18" height="18" viewBox="0 0 18 18" fill="none" xmlns="http://www.w3.org/2000/svg">
<g clip-path="url(#clip0_1685_7389)">
<rect x="2.56836" y="7.7036" width="0.590585" height="2.49073" fill="#757575"/>
<circle cx="2.86639" cy="10.7617" r="0.746271" fill="#757575"/>
<path d="M2.87634 10.653L4.08319 13.7343H1.66992L2.87634 10.653Z" fill="#757575"/>
<path d="M4.08301 13.7341C4.08301 14.0177 3.5425 14.2478 2.87598 14.2478C2.25105 14.2478 1.73749 14.0458 1.67578 13.7868L1.66895 13.7341H4.08301Z" fill="#757575"/>
<path d="M8.9338 2.14633L17.7045 7.45907L8.9026 12.7743L0.256505 7.45902L8.9338 2.14633Z" fill="#9E9E9E"/>
<ellipse cx="9.07236" cy="13.3936" rx="4.88682" ry="2.09435" fill="#9E9E9E"/>
<ellipse cx="9.07236" cy="8.99101" rx="4.88682" ry="2.1086" fill="#9E9E9E"/>
<rect x="4.18555" y="9.01271" width="9.78317" height="4.33952" fill="#9E9E9E"/>
<path d="M9.07227 6.44647C11.7707 6.44647 13.9582 7.39062 13.959 8.55487V9.4494C13.9384 8.29253 11.7592 7.35769 9.07324 7.3576C6.37504 7.35761 4.18668 8.3009 4.18555 9.46503V8.55487C4.18636 7.39069 6.37407 6.44658 9.07227 6.44647Z" fill="white"/>
<path d="M15.3912 11.8459L6.66899 14.183C5.96351 14.3721 5.5616 15.1598 5.77131 15.9424C5.98102 16.725 6.72293 17.2063 7.42841 17.0172L16.1506 14.6801C16.8561 14.4911 17.258 13.7034 17.0483 12.9208C16.8386 12.1381 16.0966 11.6569 15.3912 11.8459Z" fill="#E0E0E0"/>
<path d="M8.21611 15.2879C8.4077 16.0029 8.04052 16.7225 7.39599 16.8952C6.75146 17.0679 6.07365 16.6283 5.88206 15.9133C5.69047 15.1982 6.05765 14.4786 6.70218 14.3059C7.34671 14.1332 8.02452 14.5728 8.21611 15.2879Z" fill="#9E9E9E"/>
<path d="M11.3831 12.9353C12.0365 12.8539 12.6836 13.3179 12.8773 14.0404C13.0708 14.7629 12.7424 15.4883 12.1358 15.7444L12.1391 15.7567L10.8015 16.1151L10.8005 16.1113C10.8207 16.107 10.8415 16.1034 10.8616 16.098C11.5669 15.9087 11.9686 15.1205 11.759 14.338C11.5507 13.5617 10.8188 13.0829 10.1184 13.26L11.3796 12.9221L11.3831 12.9353ZM10.0428 13.2833L10.042 13.2805L10.0863 13.2686C10.0715 13.2728 10.0573 13.2786 10.0428 13.2833Z" fill="white"/>
</g>
<defs>
<clipPath id="clip0_1685_7389">
<rect width="18" height="18" fill="white"/>
</clipPath>
</defs>
</svg>
