<svg width="317" height="69" viewBox="0 0 317 69" fill="none" xmlns="http://www.w3.org/2000/svg">
<rect x="12.9141" y="13.1226" width="66.1602" height="42.797" transform="rotate(-3.19776 12.9141 13.1226)" fill="#72E0CE"/>
<path d="M12.3867 3.68994L36.2852 2.35475L43.8749 11.3969L12.9139 13.1267L12.3867 3.68994Z" fill="#72E0CE"/>
<path d="M16.8477 9.06396L34.3375 8.08682" stroke="#212121" stroke-width="2.80661"/>
<path d="M45.3283 44.1793C57.3294 46.9472 58.592 56.0247 55.6668 68.7082L32.8173 63.4383C34.4598 56.3166 31.7736 51.5539 24.138 50.2929L21.6977 60.8737L0.000853256 55.8697L9.44922 14.9028L31.146 19.9069L28.9717 29.3347C35.8458 31.4201 40.8421 28.6436 42.2657 22.4714L65.1151 27.7413C62.2994 39.95 56.547 45.6952 45.563 43.1619L45.3283 44.1793Z" fill="#212121"/>
<path d="M292.058 28.9963H316.466V61.6118H300.05V51.8379C300.05 49.192 300.32 45.736 302.048 42.8741H301.184C299.618 45.736 298.268 48.922 297.404 51.4059L294.056 61.6118H284.715L281.691 51.5139C280.935 48.976 279.855 45.952 278.181 42.8741H277.263C278.937 45.736 279.153 49.192 279.153 51.8379V61.6118H262.791V28.9963H286.605L287.685 32.6143C288.603 35.6382 288.981 39.6882 288.981 42.8741H289.629C289.629 39.6882 290.061 35.6382 290.979 32.6143L292.058 28.9963Z" fill="#212121"/>
<path d="M260.178 28.9963V43.1981C260.178 54.6459 253.59 62.1518 237.985 62.1518C222.379 62.1518 215.791 54.6459 215.791 43.1981V28.9963H233.719V39.9041C233.719 42.9821 234.745 45.3041 238.039 45.3041C240.955 45.3041 242.197 43.2521 242.197 39.9041V28.9963H260.178Z" fill="#212121"/>
<path d="M193.944 37.9886L202.648 6.55615L219.301 11.1678L210.597 42.6002L193.944 37.9886Z" fill="#212121"/>
<path d="M181.284 44.8721C190.842 44.8721 193.38 51.5139 193.38 61.6118H175.182C175.182 55.9419 172.32 52.8099 166.327 53.1879V61.6118H149.047V28.9963H166.327V36.5022C171.888 36.8802 175.182 33.9103 175.182 28.9963H193.38C193.38 38.7162 190.032 44.0621 181.284 44.0621V44.8721Z" fill="#212121"/>
<path d="M134.456 44.8721C144.014 44.8721 146.552 51.5139 146.552 61.6118H128.354C128.354 55.9419 125.492 52.8099 119.498 53.1879V61.6118H102.219V28.9963H119.498V36.5022C125.06 36.8802 128.354 33.9103 128.354 28.9963H146.552C146.552 38.7162 143.204 44.0621 134.456 44.0621V44.8721Z" fill="#212121"/>
</svg>
